<svg width="65.506897" height="54.139988" viewBox="0 0 13.101379 10.827998" xmlns="http://www.w3.org/2000/svg"><g style="fill:none;stroke:#000;stroke-width:.5;stroke-linecap:round;stroke-miterlimit:1;stroke-dasharray:none;stroke-opacity:1" transform="translate(-1.694 -1109.95)"><path d="M14.528 1114.32a3.78 3.78 0 0 0-7.32-1.619m.734 6.625c-.044.498.238 1.028.81 1.163.28.066.628.038.925-.01 1.84-.308 1.748-1.448 2.531-2.271.217-.228.5-.432.747-.65 1.214-1.082 1.51-2.54 1.573-3.238"/><path d="M9.503 1116.655a.705.705 0 0 0 0-1.41m-1.26-1.26a1.26 1.26 0 0 0 1.26 1.26m3.78-1.26a2.52 2.52 0 0 0-5.04 0m-6.299 2.67c.053 0 .107 0 .162-.012a.477.477 0 0 0 .154-.058l.14-.083a.29.29 0 0 1 .153-.054c.055 0 .105.031.142.072a.685.685 0 0 1 .09.136c.05.096.09.2.126.302.074.205.133.416.214.621.02.051.042.097.07.145.014.024.029.05.049.069a.07.07 0 0 0 .074.017c.05-.018.07-.084.09-.133a.929.929 0 0 0 .052-.154c.058-.214.094-.427.13-.643.034-.216.064-.432.094-.648.059-.433.112-.867.177-1.299.032-.216.064-.433.119-.644a.979.979 0 0 1 .05-.156c.01-.025.022-.053.046-.067.023-.014.048.013.061.037.052.097.068.207.088.315.08.43.117.865.158 1.3.081.87.144 1.742.216 2.613.036.435.073.87.122 1.305.025.217.049.435.094.648a.987.987 0 0 0 .042.158c.01.025.022.062.048.062.026 0 .038-.037.047-.062.038-.1.053-.212.07-.32.066-.431.099-.868.133-1.303.035-.436.065-.872.094-1.308.057-.872.11-1.744.168-2.616.03-.436.06-.871.098-1.307.019-.217.04-.435.065-.652.013-.108.027-.217.044-.325.01-.054.02-.106.032-.16a.749.749 0 0 1 .023-.079c.009-.026.02-.063.045-.064.025 0 .036.038.045.063a.66.66 0 0 1 .023.08c.012.052.022.106.031.16.018.108.032.216.045.325.025.217.045.434.064.652.038.435.069.871.098 1.307.06.872.111 1.744.169 2.616.029.436.059.872.093 1.307.035.436.068.871.134 1.304.016.108.032.217.07.32.009.025.021.061.046.062.026 0 .038-.037.048-.062a.962.962 0 0 0 .043-.158c.044-.214.069-.431.093-.648.05-.434.086-.87.123-1.305.072-.871.134-1.743.216-2.613.04-.435.078-.87.158-1.3.02-.108.035-.219.087-.315.013-.024.038-.051.062-.037.024.014.035.042.046.067.022.05.036.103.05.156.054.21.086.428.119.644.064.432.118.866.177 1.299.03.216.06.432.094.648.035.216.072.428.13.643.014.054.03.106.05.154.021.05.042.114.092.133.025.01.054 0 .074-.017a.297.297 0 0 0 .049-.07c.027-.047.05-.093.07-.144.081-.205.14-.416.214-.621.036-.102.075-.205.125-.302a.687.687 0 0 1 .09-.136.198.198 0 0 1 .142-.073c.054 0 .106.027.154.054s.09.059.137.085a.678.678 0 0 0 .318.069"/></g></svg>