<svg width="65.506897" height="54.139988" viewBox="0 0 13.101379 10.827998" xmlns="http://www.w3.org/2000/svg"><g style="fill:none;stroke:#000;stroke-width:.5;stroke-linecap:round;stroke-miterlimit:4;stroke-dasharray:none;stroke-opacity:1" transform="translate(9.069 -1118.485)"><path d="M3.765 1122.855a3.78 3.78 0 0 0-7.32-1.618m.734 6.624c-.044.498.238 1.028.81 1.163.28.067.628.039.925-.01 1.84-.308 1.748-1.448 2.531-2.271.217-.228.5-.432.747-.65 1.214-1.081 1.51-2.54 1.573-3.238" /><path d="M-1.26 1125.19a.705.705 0 0 0 0-1.41m-1.26-1.26a1.26 1.26 0 0 0 1.26 1.26m3.78-1.26a2.52 2.52 0 0 0-5.04 0m-6.299 2.67c.09 0 .2 0 .31-.01.108-.01.203-.019.306-.018.104.001.208.018.305.051s.191.078.29.106a.44.44 0 0 0 .302-.015.921.921 0 0 0 .244-.187c.074-.072.144-.147.23-.207a.29.29 0 0 1 .141-.057c.051 0 .103.01.146.039a.78.78 0 0 1 .203.23c.057.087.109.176.164.263.055.087.109.177.187.246.039.034.087.062.138.06.05 0 .097-.032.134-.07.073-.072.123-.165.171-.256.048-.09.092-.184.138-.277.045-.093.09-.185.145-.272a.742.742 0 0 1 .092-.124c.036-.038.083-.07.134-.07.05.001.097.033.133.07.036.038.065.08.092.124.055.087.1.18.146.272.045.092.089.186.137.278.049.09.098.181.171.256a.207.207 0 0 0 .135.068c.05 0 .099-.025.138-.06.078-.07.132-.158.187-.245.055-.087.106-.177.163-.263a.786.786 0 0 1 .203-.23.23.23 0 0 1 .146-.04c.051 0 .1.027.142.057.085.06.155.136.229.207a.896.896 0 0 0 .245.188.434.434 0 0 0 .301.015c.1-.03.193-.073.29-.106a.98.98 0 0 1 .305-.051c.104-.001.198.01.307.019.109.01.22.01.31.01" /></g></svg>