<svg width="65.506897" height="54.139988" viewBox="0 0 13.101379 10.827998" xmlns="http://www.w3.org/2000/svg"><g style="fill:none;stroke:#000;stroke-width:.5;stroke-linecap:round;stroke-miterlimit:4;stroke-dasharray:none;stroke-opacity:1" transform="translate(9.069 -1118.485)"><path d="M3.765 1122.855a3.78 3.78 0 0 0-7.32-1.618m.734 6.624c-.044.498.238 1.028.81 1.163.28.067.628.039.925-.01 1.84-.308 1.748-1.448 2.531-2.271.217-.228.5-.432.747-.65 1.214-1.081 1.51-2.54 1.573-3.238"/><path d="M-1.26 1125.19a.705.705 0 0 0 0-1.41m-1.26-1.26a1.26 1.26 0 0 0 1.26 1.26m3.78-1.26a2.52 2.52 0 0 0-5.04 0m-6.299 2.67c.066 0 .134 0 .205-.014.071-.012.142-.036.207-.062a.5.5 0 0 1 .199-.049c.07 0 .139.032.189.081.1.098.166.227.233.348.066.121.123.247.223.353.025.027.055.05.09.05a.133.133 0 0 0 .09-.044.552.552 0 0 0 .1-.185c.054-.131.09-.264.125-.4.068-.27.125-.546.185-.818.03-.136.061-.273.097-.409.018-.068.037-.135.059-.2a.616.616 0 0 1 .088-.191c.02-.028.06-.046.088-.026a.2.2 0 0 1 .058.086c.03.064.05.13.067.198.035.135.062.273.086.411.098.551.161 1.107.235 1.662.037.277.074.554.12.83.022.139.046.276.078.413a1.4 1.4 0 0 0 .058.201c.012.033.024.066.049.092.012.013.03.02.046.013a.108.108 0 0 0 .035-.038.762.762 0 0 0 .07-.197c.016-.068.03-.137.043-.205.026-.138.046-.276.066-.415a33.2 33.2 0 0 0 .101-.833c.062-.556.116-1.113.177-1.669.03-.278.063-.556.102-.833.02-.139.04-.277.067-.414a2.224 2.224 0 0 1 .08-.304c.012-.032.03-.077.063-.077.034 0 .051.045.064.077a.938.938 0 0 1 .034.1c.019.066.033.135.046.204.027.137.048.275.067.414.04.277.071.555.102.833.062.556.116 1.113.177 1.669.03.278.063.556.101.833.02.139.04.277.066.414.013.07.027.138.044.206a.67.67 0 0 0 .069.197c.009.015.02.032.036.038.015.01.033 0 .046-.013.024-.026.036-.06.049-.093.025-.065.042-.134.057-.202.032-.136.056-.274.079-.412.045-.276.083-.553.12-.83.073-.555.136-1.111.234-1.662.025-.138.051-.276.086-.411.018-.067.038-.134.067-.198a.2.2 0 0 1 .058-.086c.029-.02.067 0 .089.026a.644.644 0 0 1 .087.19c.023.066.041.133.06.201.035.136.066.272.096.409.06.272.118.549.186.819.034.135.07.267.123.398.027.066.054.137.101.186a.131.131 0 0 0 .09.043c.035 0 .066-.022.09-.049.1-.106.157-.232.224-.353.066-.121.132-.25.232-.348a.287.287 0 0 1 .19-.081c.069 0 .132.023.198.049.065.026.136.05.207.062.071.012.14.014.205.014"/></g></svg>