<svg width="65.506897" height="54.139988" viewBox="0 0 13.101379 10.827998" xmlns="http://www.w3.org/2000/svg"><g style="fill:none;stroke:#000;stroke-width:.5;stroke-linecap:round;stroke-miterlimit:4;stroke-dasharray:none;stroke-opacity:1" transform="translate(8.819 -1118.485)"><path style="stroke-linecap:butt;" d="M-7.987 1125.19h-.582m1.745 0h-.582m1.744 0h-.581m2.907 0h-.581m-1.745-.87 1.745 1.74m1.744-.87h-.581m-1.163-.87-1.745 1.74"/><path d="M4.015 1122.855a3.78 3.78 0 0 0-7.32-1.618m.734 6.624c-.044.498.238 1.028.81 1.163.28.067.628.039.925-.01 1.84-.308 1.748-1.448 2.531-2.271.217-.228.5-.432.747-.65 1.214-1.081 1.51-2.54 1.573-3.238"/><path style="stroke-linecap:butt;" d="M-1.591 1125.19h.581"/><path d="M-1.01 1125.19a.705.705 0 0 0 0-1.41m-1.26-1.26a1.26 1.26 0 0 0 1.26 1.26m3.78-1.26a2.52 2.52 0 0 0-5.04 0"/></g></svg>