<svg width="65.506897" height="54.139988" viewBox="0 0 13.101379 10.827998" xmlns="http://www.w3.org/2000/svg"> <g style="fill:none;stroke:#000;stroke-width:.5;stroke-linecap:round;stroke-miterlimit:4;stroke-dasharray:none;stroke-opacity:1" transform="translate(9.069 -1118.485)"> <path d="M-8.819 1125.19c.082 0 .17-.01.264-.02.094-.015.19-.038.281-.049a.631.631 0 0 1 .27.03c.086.028.165.075.247.119a.425.425 0 0 0 .262.062.442.442 0 0 0 .231-.14c.065-.067.122-.136.187-.2.066-.063.146-.135.237-.118.09.017.15.1.202.176.051.077.096.156.139.237.043.08.084.162.136.238a.533.533 0 0 0 .09.104c.035.03.083.045.126.028.043-.017.071-.055.097-.094.025-.04.047-.08.067-.12a2.65 2.65 0 0 0 .103-.255c.063-.172.119-.348.193-.514a.896.896 0 0 1 .064-.121c.025-.04.052-.083.097-.092.045-.01.084.027.11.065a.715.715 0 0 1 .066.12c.073.168.115.348.162.525.047.177.091.355.142.531.025.088.05.176.085.26a.699.699 0 0 0 .063.123.15.15 0 0 0 .046.05c.02.01.046.01.065 0 .037-.025.056-.072.075-.114.018-.042.033-.085.046-.129.027-.087.05-.176.071-.265.043-.178.077-.359.112-.538.035-.18.069-.36.107-.539.02-.09.04-.179.062-.268.022-.089.044-.178.084-.26a.429.429 0 0 1 .034-.06c.014-.02.03-.037.054-.037.023 0 .04.019.053.038.013.019.024.04.033.06.038.083.059.173.08.262.043.178.076.358.106.539.061.361.114.723.175 1.085.031.18.063.361.109.538.011.044.023.09.038.132a.33.33 0 0 0 .061.123c.015.017.042.022.06.01a.157.157 0 0 0 .038-.057.745.745 0 0 0 .045-.13c.097-.352.136-.719.184-1.082.048-.363.09-.727.14-1.09.025-.18.05-.363.082-.543.016-.09.034-.18.056-.269a1.27 1.27 0 0 1 .04-.13.274.274 0 0 1 .03-.063c.013-.02.036-.033.055-.023.02.011.03.035.04.056a.57.57 0 0 1 .024.064 4.059 4.059 0 0 1 .088.402c.029.181.053.363.076.544.046.364.085.728.125 1.092.04.364.08.728.13 1.09.025.182.051.365.094.542.01.044.021.089.037.132a.278.278 0 0 0 .03.063c.013.019.039.027.055.01.032-.031.042-.081.054-.125a2.47 2.47 0 0 0 .032-.134c.075-.357.106-.724.144-1.089.037-.364.07-.729.104-1.093.034-.365.067-.73.107-1.094.02-.182.04-.364.066-.545a4.03 4.03 0 0 1 .046-.271 2.174 2.174 0 0 1 .052-.199c.009-.02.019-.048.038-.057.02-.01.039.013.05.034.01.021.018.043.024.065a1.9 1.9 0 0 1 .033.133c.02.09.034.18.047.27.026.182.047.364.066.546.04.364.072.73.104 1.094.063.73.118 1.46.2 2.188.021.182.042.365.073.545.016.09.03.18.063.267.008.022.018.049.037.057.02.01.038-.016.048-.037.02-.042.028-.087.038-.132.042-.178.061-.361.082-.543a22.6 22.6 0 0 0 .055-.547c.066-.73.115-1.46.17-2.19.028-.366.056-.731.09-1.096.016-.182.034-.364.055-.546.02-.182.042-.365.086-.542a.558.558 0 0 1 .02-.066c.008-.022.02-.05.04-.051.02 0 .033.027.042.049a.829.829 0 0 1 .02.066c.023.089.038.179.051.27.027.18.047.363.065.545.037.364.066.73.094 1.095.056.73.105 1.46.16 2.191.029.366.057.73.094 1.095.018.182.037.365.063.546a2.53 2.53 0 0 0 .07.336c.007.022.02.05.04.05.019.001.03-.027.039-.05a.564.564 0 0 0 .02-.065c.043-.178.061-.36.08-.543.02-.182.037-.364.052-.547.03-.364.056-.73.08-1.096.05-.73.093-1.462.143-2.192.025-.366.05-.731.082-1.096.016-.183.033-.365.054-.547a5.41 5.41 0 0 1 .037-.272 2.14 2.14 0 0 1 .026-.135c.005-.022.01-.045.017-.067.007-.022.015-.048.032-.06.018-.013.036.011.045.033.01.022.016.044.021.066a5.456 5.456 0 0 1 .067.405c.022.183.04.365.056.548.032.364.059.73.084 1.095.05.73.095 1.462.143 2.193.049.73.089 1.462.177 2.19a4.36 4.36 0 0 0 .07.406.227.227 0 0 0 .024.065c.006.01.015.019.024.018.01 0 .018-.01.024-.02.024-.042.03-.088.039-.133l.024-.135c.014-.09.025-.181.035-.272.04-.365.067-.73.093-1.095.101-1.462.16-2.926.274-4.387.014-.182.03-.365.047-.547.018-.182.036-.365.072-.544.01-.045.015-.09.036-.133.01-.022.034-.034.048-.015.013.019.02.043.026.065.023.088.038.179.05.27.027.18.044.363.06.545.068.73.111 1.461.156 2.192.044.731.087 1.463.135 2.194.024.366.05.73.08 1.096.016.183.033.366.053.546.01.09.021.18.036.27l.035.26"/><path d="M-.152 1128.718c-.243.128-.545.23-.934.295-.297.05-.646.077-.925.011-.572-.135-.854-.665-.81-1.163" style="stroke-linecap:butt" /><path d="M3.765 1122.855a3.78 3.78 0 0 0-7.32-1.618"/><path style="stroke-linecap:butt" d="M2.011 1121.002a2.46 2.46 0 0 0-2.415-.97m0 0c-1.124.19-2.116 1.115-2.116 2.488" /></g></svg>