<svg width="128px" viewBox="0 0 3.967 3.78"><style>.A{fill:#222;stroke:none}.a{stroke:#222;}.b{stroke:#888}.a,.b{stroke-width:.377953;fill:none;}</style><path class="a" d="M2.078 3.59h.824m-.824-.76h1.637m-1.637-.94h1.89M2.078.94h1.637M2.078.19h.824"/><path class="A" d="M1.767 3.538a.392.392 0 0 0 .009-.247c-.025-.08-.067-.156-.075-.24-.007-.084.024-.159.053-.233a.43.43 0 0 0 .034-.235c-.015-.079-.056-.15-.076-.227a.395.395 0 0 1 .02-.236c.027-.075.062-.15.062-.23 0-.08-.035-.156-.063-.23a.395.395 0 0 1-.019-.236c.02-.077.061-.15.076-.228a.429.429 0 0 0-.034-.234c-.03-.075-.06-.15-.053-.234.008-.084.05-.16.075-.24a.392.392 0 0 0-.009-.247C1.739.162 1.7.081 1.7 0L.66.94H0v1.89h.66l1.04.95c0-.08.039-.163.067-.242Z"/></svg>